<svg xmlns="http://www.w3.org/2000/svg" width="360" height="102" viewBox="0 0 360 102">
  <g id="Group_18740" data-name="Group 18740" transform="translate(-780 -82)">
    <g id="Group_18702" data-name="Group 18702" transform="translate(56.233 38)">
      <rect id="Rectangle_5568" data-name="Rectangle 5568" width="6.724" height="30.027" transform="translate(762.767 45.394)" fill="#f05133"/>
      <path id="Path_126" data-name="Path 126" d="M20.958,31.971A16.509,16.509,0,0,1,10.415,28.5l3.706-5.043c1.834,1.412,4.355,3.018,7.181,3.018,2.064,0,3.515-.841,3.515-3.018a3.589,3.589,0,0,0-2.176-2.941L17.367,17.76c-3.7-1.948-6.074-4.508-6.074-8.251,0-5,4.355-8.366,10.124-8.366A15.4,15.4,0,0,1,30.7,3.893L27.262,8.746a9.341,9.341,0,0,0-5.845-2.217c-1.987,0-3.438.917-3.438,2.712s1.031,2.484,2.6,3.285L24.7,14.589c3.552,1.758,6.875,4.2,6.875,8.482,0,5.08-3.515,8.9-10.62,8.9" transform="translate(760.543 43.756)" fill="#f05133"/>
      <path id="Path_127" data-name="Path 127" d="M50.7,7.237H46.663v7.6h4.076c3.592,0,4.507-2.217,4.507-4.089S54.025,7.237,50.7,7.237M54.964,31.8l-8.3-13.116V31.8H39.94V1.773H50.93c6.342,0,11.079,2.866,11.079,8.9,0,5.729-4.183,8.213-7.573,8.213L62.54,31.8Z" transform="translate(754.238 43.621)" fill="#f05133"/>
      <path id="Path_128" data-name="Path 128" d="M108.688,31.8V1.773h17.5V7.236H115.411v6.532h9.55v5.425h-9.55v6.915H127.1V31.8Z" transform="translate(739.557 43.621)" fill="#f05133"/>
      <path id="Path_129" data-name="Path 129" d="M134.9,31.8V1.773h6.724V26.108h10.657V31.8Z" transform="translate(733.959 43.621)" fill="#f05133"/>
      <path id="Path_130" data-name="Path 130" d="M84.636,15.124l7.695,16.3h7.127L84.636.025l-14.707,31.4H77Z" transform="translate(747.834 43.995)" fill="#f05133"/>
      <path id="Path_131" data-name="Path 131" d="M230.24,16.384V31.806h-6.675V1.759l16.4,15.278V1.779H246.6v30Z" transform="translate(715.026 43.624)" fill="#161615"/>
      <path id="Path_132" data-name="Path 132" d="M199.962,15.1l7.7,16.3h7.128L199.962,0,185.254,31.4h7.072Z" transform="translate(723.207 44)" fill="#161615"/>
      <path id="Path_133" data-name="Path 133" d="M336.569,15.1l7.7,16.3h7.127L336.569,0,321.862,31.4h7.072Z" transform="translate(694.035 44)" fill="#161615"/>
      <path id="Path_134" data-name="Path 134" d="M268.208,15.1l7.7,16.3h7.127L268.208,0,253.5,31.4h7.073Z" transform="translate(708.633 44)" fill="#161615"/>
      <path id="Path_135" data-name="Path 135" d="M302.026,7.21h-3.04V26.044h3.692c5.807,0,9.435-3.553,9.435-9.208,0-5.845-2.9-9.627-10.087-9.627m1.8,24.565H292.269V1.746h9.757c10.391,0,16.774,4.432,16.774,15.549,0,7.03-4.547,14.479-14.977,14.479" transform="translate(700.354 43.627)" fill="#161615"/>
      <path id="Path_136" data-name="Path 136" d="M177.977,24.007a8.458,8.458,0,0,1-6.147,2.412c-5.655,0-9.093-4.239-9.093-9.74,0-5.807,4.127-9.434,8.787-9.434a9.431,9.431,0,0,1,6.453,2.166V2.418a18.427,18.427,0,0,0-6.53-1.058,15.051,15.051,0,0,0-15.4,15.319c0,9.206,6.381,15.51,15.473,15.51a15.676,15.676,0,0,0,6.453-1.283Z" transform="translate(729.443 43.71)" fill="#161615"/>
    </g>
    <text id="לש_ישארה_קרועה_תניפב_םימקוממה_םירימת_םילדגמ_2_בוטה_םוקימל_בשחנש_המב_תוברתה_תטמסו_ןילופורטמה_ביבא_לתב_רתויב" data-name="לש ישארה קרועה תניפב םימקוממה םירימת םילדגמ 2 בוטה םוקימל בשחנש המב תוברתה תטמסו ןילופורטמה ביבא לתב רתויב" transform="translate(960 174)" font-size="40" font-family="Montserrat-Light, Montserrat" font-weight="300" letter-spacing="0.02em"><tspan x="-179.82" y="0">Better &amp; Different</tspan></text>
  </g>
</svg>
